# File created by Blade
# Date/Time:  Tue Apr 07 20:22:14 2015
# Frame Rate: 120.000 fps
#------------------------------------------------------
:FULLY-SPECIFIED
:DEGREES
1551
root 2.640191 32.792399 -10.050748 17.471314 3.066750 -1.278416
Spine -13.907748 -4.368416 -1.116065
Head 17.444102 -7.373079 4.518427
LeftShoulder -19.627825 47.429499 8.295621
LeftArm 46.241919 -1.792310 -89.886284
LeftForeArm -5.051748 -0.000000 23.715737
LeftHand 14.742459 0.000000 12.785826
LeftHandThumb1 -26.253704 0.000000 33.147579
RightShoulder -7.532165 -12.129270 -15.036634
RightArm 7.460189 1.571501 89.010212
RightForeArm 9.365691 -0.000000 16.073636
RightHand 6.535495 -0.000000 5.008027
RightHandThumb1 -24.326973 -0.000000 -32.862282
LeftUpLeg -19.764098 -7.276556 1.017110
LeftLeg 6.418395 -0.000000 -0.000000
LeftFoot -8.313136 10.215282 -13.086654
LeftToeBase -6.516652 -0.000000 0.000000
RightUpLeg -14.483976 -5.264664 0.140670
RightLeg -0.046531 -0.000000 0.000000
RightFoot -7.516454 -4.761600 7.263643
RightToeBase 2.790723 -0.000000 -0.000000
1552
root 2.652915 32.794622 -10.049992 17.565172 3.010001 -1.327512
Spine -13.944260 -4.334900 -1.148262
Head 17.279569 -7.346308 4.694544
LeftShoulder -19.645975 47.414320 8.374484
LeftArm 46.145313 -2.032398 -90.023082
LeftForeArm -5.066455 -0.000000 23.842145
LeftHand 14.741048 0.000000 12.778600
LeftHandThumb1 -26.253704 0.000000 33.147579
RightShoulder -7.588189 -12.191026 -15.004610
RightArm 7.350403 1.757604 89.022972
RightForeArm 9.373002 0.000000 16.114205
RightHand 6.614491 -0.000000 4.986708
RightHandThumb1 -24.326973 -0.000000 -32.862282
LeftUpLeg -19.850324 -7.223671 1.043068
LeftLeg 6.414126 -0.000000 -0.000000
LeftFoot -8.296859 10.208569 -13.046088
LeftToeBase -6.538407 -0.000000 0.000000
RightUpLeg -14.610677 -5.142207 0.142791
RightLeg 0.013846 -0.000000 -0.000000
RightFoot -7.509872 -4.816225 7.308276
RightToeBase 2.771236 -0.000000 -0.000000
1553
root 2.667690 32.794781 -10.046571 17.633891 2.977452 -1.344718
Spine -13.964475 -4.374793 -1.190186
Head 17.137634 -7.284604 4.862793
LeftShoulder -19.708509 47.459574 8.406933
LeftArm 46.100863 -2.264107 -90.143917
LeftForeArm -5.076392 0.000000 23.967400
LeftHand 14.664568 0.000000 12.780622
LeftHandThumb1 -26.253704 0.000000 33.147579
RightShoulder -7.589721 -12.209242 -15.003111
RightArm 7.200815 1.896533 89.041986
RightForeArm 9.405929 -0.000000 16.170304
RightHand 6.534182 -0.000000 4.854674
RightHandThumb1 -24.326973 -0.000000 -32.862282
LeftUpLeg -19.902628 -7.200947 1.037803
LeftLeg 6.400441 -0.000000 -0.000000
LeftFoot -8.294595 10.190101 -13.018750
LeftToeBase -6.491172 -0.000000 0.000000
RightUpLeg -14.793810 -5.227495 0.161915
RightLeg 0.256054 -0.000000 -0.000000
RightFoot -7.616985 -4.685392 7.292837
RightToeBase 2.772936 -0.000000 -0.000000
1554
root 2.682274 32.797400 -10.048273 17.743153 2.922246 -1.409575
Spine -14.019453 -4.378077 -1.179475
Head 17.001418 -7.251151 5.016742
LeftShoulder -19.733509 47.474847 8.430805
LeftArm 46.026162 -2.511305 -90.221404
LeftForeArm -5.108442 0.000000 24.086804
LeftHand 14.734684 0.000000 12.917467
LeftHandThumb1 -26.253704 0.000000 33.147579
RightShoulder -7.622468 -12.280646 -14.986947
RightArm 7.154724 1.988966 89.033475
RightForeArm 9.457387 -0.000000 16.172603
RightHand 6.609025 -0.000000 4.842202
RightHandThumb1 -24.326973 -0.000000 -32.862282
LeftUpLeg -20.009940 -7.133398 1.071706
LeftLeg 6.402264 -0.000000 -0.000000
LeftFoot -8.279771 10.186867 -13.039541
LeftToeBase -6.548030 -0.000000 0.000000
RightUpLeg -15.048547 -5.289589 0.238785
RightLeg 0.527896 -0.000000 -0.000000
RightFoot -7.683567 -4.608073 7.218171
RightToeBase 2.723631 -0.000000 -0.000000
1555
root 2.697765 32.800135 -10.048465 17.847369 2.860484 -1.483795
Spine -14.070050 -4.339970 -1.170096
Head 16.843143 -7.229134 5.175729
LeftShoulder -19.709522 47.505841 8.488585
LeftArm 45.971809 -2.772236 -90.331365
LeftForeArm -5.074996 -0.000000 24.216241
LeftHand 14.746939 0.000000 12.980616
LeftHandThumb1 -26.253704 0.000000 33.147579
RightShoulder -7.685677 -12.304967 -14.966310
RightArm 7.049858 2.122977 89.024802
RightForeArm 9.406045 0.000000 16.192625
RightHand 6.649004 -0.000000 4.752969
RightHandThumb1 -24.326973 -0.000000 -32.862282
LeftUpLeg -20.091052 -7.085145 1.118305
LeftLeg 6.363017 -0.000000 -0.000000
LeftFoot -8.273841 10.205458 -13.011908
LeftToeBase -6.517018 -0.000000 0.000000
RightUpLeg -15.306904 -5.349844 0.323918
RightLeg 0.818240 -0.000000 -0.000000
RightFoot -7.754260 -4.524192 7.149274
RightToeBase 2.725899 -0.000000 -0.000000
1556
root 2.711155 32.802561 -10.050282 17.965679 2.797520 -1.565913
Spine -14.131953 -4.345238 -1.152411
Head 16.685438 -7.201424 5.344164
LeftShoulder -19.757158 47.549364 8.498468
LeftArm 45.936778 -3.025016 -90.424621
LeftForeArm -5.117130 -0.000000 24.342341
LeftHand 14.730879 -0.000000 12.941345
LeftHandThumb1 -26.253704 0.000000 33.147579
RightShoulder -7.691718 -12.311541 -14.949260
RightArm 6.940444 2.300061 89.021522
RightForeArm 9.369986 0.000000 16.226489
RightHand 6.630123 -0.000000 4.748343
RightHandThumb1 -24.326973 -0.000000 -32.862282
LeftUpLeg -20.199030 -6.992512 1.164480
LeftLeg 6.345565 -0.000000 -0.000000
LeftFoot -8.243903 10.193693 -12.956064
LeftToeBase -6.520227 -0.000000 0.000000
RightUpLeg -15.484157 -5.125972 0.332395
RightLeg 0.926540 -0.000000 -0.000000
RightFoot -7.766661 -4.660984 7.249705
RightToeBase 2.853232 -0.000000 -0.000000
1557
root 2.728871 32.804152 -10.053715 18.078047 2.737294 -1.629597
Spine -14.180472 -4.387269 -1.123625
Head 16.521882 -7.118615 5.464088
LeftShoulder -19.857637 47.608317 8.440413
LeftArm 45.925852 -3.294660 -90.514787
LeftForeArm -5.124363 -0.000000 24.473465
LeftHand 14.750757 0.000000 13.019145
LeftHandThumb1 -26.253704 0.000000 33.147579
RightShoulder -7.678683 -12.321475 -14.954476
RightArm 6.866828 2.441279 89.011128
RightForeArm 9.366916 -0.000000 16.255093
RightHand 6.649467 -0.000000 4.717718
RightHandThumb1 -24.326973 -0.000000 -32.862282
LeftUpLeg -20.297863 -6.942488 1.194434
LeftLeg 6.312356 -0.000000 -0.000000
LeftFoot -8.213393 10.207655 -12.900285
LeftToeBase -6.505766 -0.000000 0.000000
RightUpLeg -15.751581 -4.963078 0.342956
RightLeg 1.228349 -0.000000 -0.000000
RightFoot -7.868997 -4.795850 7.210376
RightToeBase 2.826601 -0.000000 -0.000000
1558
root 2.743814 32.806301 -10.055779 18.180117 2.669338 -1.701971
Spine -14.211404 -4.412493 -1.114478
Head 16.347600 -7.038508 5.620562
LeftShoulder -19.941209 47.658222 8.413230
LeftArm 45.921351 -3.561743 -90.609652
LeftForeArm -5.107889 -0.000000 24.603296
LeftHand 14.670499 -0.000000 13.130676
LeftHandThumb1 -26.253704 0.000000 33.147579
RightShoulder -7.711041 -12.331881 -14.923013
RightArm 6.822289 2.540436 88.986366
RightForeArm 9.357460 -0.000000 16.253282
RightHand 6.641859 -0.000000 4.638509
RightHandThumb1 -24.326973 -0.000000 -32.862282
LeftUpLeg -20.377174 -6.895439 1.241943
LeftLeg 6.263002 -0.000000 -0.000000
LeftFoot -8.163982 10.242537 -12.853072
LeftToeBase -6.591441 -0.000000 0.000000
RightUpLeg -16.005484 -4.807202 0.364020
RightLeg 1.520482 -0.000000 -0.000000
RightFoot -7.969149 -4.898857 7.203484
RightToeBase 2.801854 -0.000000 -0.000000
1559
root 2.757929 32.808322 -10.058252 18.284358 2.593994 -1.778713
Spine -14.232171 -4.374888 -1.126810
Head 16.141708 -7.006688 5.816400
LeftShoulder -19.926041 47.631224 8.489216
LeftArm 45.868895 -3.820680 -90.699519
LeftForeArm -5.112098 -0.000000 24.696255
LeftHand 14.692159 -0.000000 13.090276
LeftHandThumb1 -26.253704 0.000000 33.147579
RightShoulder -7.804534 -12.334288 -14.865379
RightArm 6.761864 2.632360 88.954208
RightForeArm 9.340617 0.000000 16.279718
RightHand 6.621005 0.000000 4.561343
RightHandThumb1 -24.326973 -0.000000 -32.862282
LeftUpLeg -20.463253 -6.839258 1.294052
LeftLeg 6.228589 -0.000000 -0.000000
LeftFoot -8.145864 10.241402 -12.852168
LeftToeBase -6.563629 -0.000000 0.000000
RightUpLeg -16.272365 -4.620405 0.377183
RightLeg 1.833211 -0.000000 -0.000000
RightFoot -8.069735 -4.996168 7.242251
RightToeBase 2.612669 -0.000000 -0.000000
1560
root 2.772196 32.809980 -10.061864 18.377163 2.516739 -1.847440
Spine -14.241586 -4.389281 -1.137685
Head 15.959398 -6.988143 5.992405
LeftShoulder -20.002059 47.635663 8.494034
LeftArm 45.867714 -4.052775 -90.758105
LeftForeArm -5.091715 -0.000000 24.763625
LeftHand 14.760673 -0.000000 13.211193
LeftHandThumb1 -26.253704 0.000000 33.147579
RightShoulder -7.828727 -12.327062 -14.824457
RightArm 6.711782 2.786627 88.933697
RightForeArm 9.362291 -0.000000 16.291183
RightHand 6.602425 -0.000000 4.593020
RightHandThumb1 -24.326973 -0.000000 -32.862282
LeftUpLeg -20.546708 -6.776677 1.337803
LeftLeg 6.204759 -0.000000 -0.000000
LeftFoot -8.121240 10.238907 -12.834129
LeftToeBase -6.622498 -0.000000 0.000000
RightUpLeg -16.495195 -4.261942 0.328646
RightLeg 2.090982 -0.000000 -0.000000
RightFoot -8.178274 -5.246373 7.348158
RightToeBase 2.619728 -0.000000 -0.000000
